<?xml version="1.0" encoding="utf-8" standalone="no"?>
<!DOCTYPE svg PUBLIC "-//W3C//DTD SVG 1.1//EN"
  "http://www.w3.org/Graphics/SVG/1.1/DTD/svg11.dtd">
<svg xmlns:xlink="http://www.w3.org/1999/xlink" width="526.79952pt" height="224.39952pt" viewBox="0 0 526.79952 224.39952" xmlns="http://www.w3.org/2000/svg" version="1.1">
 <metadata>
  <rdf:RDF xmlns:dc="http://purl.org/dc/elements/1.1/" xmlns:cc="http://creativecommons.org/ns#" xmlns:rdf="http://www.w3.org/1999/02/22-rdf-syntax-ns#">
   <cc:Work>
    <dc:type rdf:resource="http://purl.org/dc/dcmitype/StillImage"/>
    <dc:date>2026-08-26T09:42:57.826799</dc:date>
    <dc:format>image/svg+xml</dc:format>
    <dc:creator>
     <cc:Agent>
      <dc:title>Matplotlib v3.11.0, https://matplotlib.org/</dc:title>
     </cc:Agent>
    </dc:creator>
   </cc:Work>
  </rdf:RDF>
 </metadata>
 <defs>
  <style type="text/css">*{stroke-linejoin: round; stroke-linecap: butt}</style>
 </defs>
 <g id="figure_1">
  <g id="patch_1">
   <path d="M 0 224.39952 
L 526.79952 224.39952 
L 526.79952 0 
L 0 0 
z
" style="fill: #ffffff"/>
  </g>
  <g id="axes_1">
   <g id="patch_2">
    <path d="M 50.560039 190.198856 
L 260.39952 190.198856 
L 260.39952 20.038594 
L 50.560039 20.038594 
z
" style="fill: #ffffff"/>
   </g>
   <g id="matplotlib.axis_1">
    <g id="xtick_1">
     <g id="line2d_1">
      <defs>
       <path id="mcbcd4c0cdb" d="M 0 0 
L 0 3.5 
" style="stroke: #000000; stroke-width: 0.8"/>
      </defs>
      <g>
       <use xlink:href="#mcbcd4c0cdb" x="58.220074" y="190.198856" style="stroke: #000000; stroke-width: 0.8"/>
      </g>
     </g>
     <g id="text_1">
      <text style="font-size: 7.5px; font-family: 'DejaVu Sans'; text-anchor: middle" x="58.220074" y="202.897098" transform="rotate(-0 58.220074 202.897098)">0</text>
     </g>
    </g>
    <g id="xtick_2">
     <g id="line2d_2">
      <g>
       <use xlink:href="#mcbcd4c0cdb" x="90.257867" y="190.198856" style="stroke: #000000; stroke-width: 0.8"/>
      </g>
     </g>
     <g id="text_2">
      <text style="font-size: 7.5px; font-family: 'DejaVu Sans'; text-anchor: middle" x="90.257867" y="202.897098" transform="rotate(-0 90.257867 202.897098)">50</text>
     </g>
    </g>
    <g id="xtick_3">
     <g id="line2d_3">
      <g>
       <use xlink:href="#mcbcd4c0cdb" x="122.29566" y="190.198856" style="stroke: #000000; stroke-width: 0.8"/>
      </g>
     </g>
     <g id="text_3">
      <text style="font-size: 7.5px; font-family: 'DejaVu Sans'; text-anchor: middle" x="122.29566" y="202.897098" transform="rotate(-0 122.29566 202.897098)">100</text>
     </g>
    </g>
    <g id="xtick_4">
     <g id="line2d_4">
      <g>
       <use xlink:href="#mcbcd4c0cdb" x="154.333454" y="190.198856" style="stroke: #000000; stroke-width: 0.8"/>
      </g>
     </g>
     <g id="text_4">
      <text style="font-size: 7.5px; font-family: 'DejaVu Sans'; text-anchor: middle" x="154.333454" y="202.897098" transform="rotate(-0 154.333454 202.897098)">150</text>
     </g>
    </g>
    <g id="xtick_5">
     <g id="line2d_5">
      <g>
       <use xlink:href="#mcbcd4c0cdb" x="186.371247" y="190.198856" style="stroke: #000000; stroke-width: 0.8"/>
      </g>
     </g>
     <g id="text_5">
      <text style="font-size: 7.5px; font-family: 'DejaVu Sans'; text-anchor: middle" x="186.371247" y="202.897098" transform="rotate(-0 186.371247 202.897098)">200</text>
     </g>
    </g>
    <g id="xtick_6">
     <g id="line2d_6">
      <g>
       <use xlink:href="#mcbcd4c0cdb" x="218.40904" y="190.198856" style="stroke: #000000; stroke-width: 0.8"/>
      </g>
     </g>
     <g id="text_6">
      <text style="font-size: 7.5px; font-family: 'DejaVu Sans'; text-anchor: middle" x="218.40904" y="202.897098" transform="rotate(-0 218.40904 202.897098)">250</text>
     </g>
    </g>
    <g id="xtick_7">
     <g id="line2d_7">
      <g>
       <use xlink:href="#mcbcd4c0cdb" x="250.446834" y="190.198856" style="stroke: #000000; stroke-width: 0.8"/>
      </g>
     </g>
     <g id="text_7">
      <text style="font-size: 7.5px; font-family: 'DejaVu Sans'; text-anchor: middle" x="250.446834" y="202.897098" transform="rotate(-0 250.446834 202.897098)">300</text>
     </g>
    </g>
    <g id="text_8">
     <text style="font-size: 8.5px; font-family: 'DejaVu Sans'; text-anchor: middle" x="155.47978" y="215.157528" transform="rotate(-0 155.47978 215.157528)">projected extension [um]</text>
    </g>
   </g>
   <g id="matplotlib.axis_2">
    <g id="ytick_1">
     <g id="line2d_8">
      <defs>
       <path id="ma8076a0637" d="M 0 0 
L -3.5 0 
" style="stroke: #000000; stroke-width: 0.8"/>
      </defs>
      <g>
       <use xlink:href="#ma8076a0637" x="50.560039" y="160.981259" style="stroke: #000000; stroke-width: 0.8"/>
      </g>
     </g>
     <g id="text_9">
      <text style="font-size: 7.5px; font-family: 'DejaVu Sans'; text-anchor: end" x="43.560039" y="163.83038" transform="rotate(-0 43.560039 163.83038)">20000</text>
     </g>
    </g>
    <g id="ytick_2">
     <g id="line2d_9">
      <g>
       <use xlink:href="#ma8076a0637" x="50.560039" y="125.369022" style="stroke: #000000; stroke-width: 0.8"/>
      </g>
     </g>
     <g id="text_10">
      <text style="font-size: 7.5px; font-family: 'DejaVu Sans'; text-anchor: end" x="43.560039" y="128.218143" transform="rotate(-0 43.560039 128.218143)">25000</text>
     </g>
    </g>
    <g id="ytick_3">
     <g id="line2d_10">
      <g>
       <use xlink:href="#ma8076a0637" x="50.560039" y="89.756784" style="stroke: #000000; stroke-width: 0.8"/>
      </g>
     </g>
     <g id="text_11">
      <text style="font-size: 7.5px; font-family: 'DejaVu Sans'; text-anchor: end" x="43.560039" y="92.605906" transform="rotate(-0 43.560039 92.605906)">30000</text>
     </g>
    </g>
    <g id="ytick_4">
     <g id="line2d_11">
      <g>
       <use xlink:href="#ma8076a0637" x="50.560039" y="54.144547" style="stroke: #000000; stroke-width: 0.8"/>
      </g>
     </g>
     <g id="text_12">
      <text style="font-size: 7.5px; font-family: 'DejaVu Sans'; text-anchor: end" x="43.560039" y="56.993668" transform="rotate(-0 43.560039 56.993668)">35000</text>
     </g>
    </g>
    <g id="text_13">
     <text style="font-size: 8.5px; font-family: 'DejaVu Sans'; text-anchor: middle" x="13.658672" y="105.118725" transform="rotate(-90 13.658672 105.118725)">operator-projected retained entering wake</text>
    </g>
   </g>
   <g id="line2d_12">
    <path d="M 60.098197 123.177138 
L 62.971874 121.187423 
L 64.93227 116.60803 
L 69.586177 119.694484 
L 76.293525 149.854743 
L 79.403015 132.781785 
L 80.875049 137.770631 
L 84.236602 120.730117 
L 87.396678 125.598778 
L 88.868713 130.751394 
L 90.340747 168.305475 
L 91.812781 172.523217 
L 94.536462 182.464299 
L 99.616989 174.581321 
L 105.024665 172.927072 
L 106.496529 125.596449 
L 107.968392 113.952487 
L 109.440256 114.432324 
L 110.911609 92.892642 
L 122.398784 99.92375 
L 123.870648 100.037618 
L 125.342512 85.120886 
L 127.402157 76.205391 
L 132.174422 71.874118 
L 133.646456 93.920502 
L 134.8913 107.399016 
L 137.708941 111.416907 
L 139.180975 117.090023 
L 146.689411 68.869153 
L 148.161445 68.637586 
L 149.633479 69.288436 
L 151.105513 106.36479 
L 153.712198 70.624051 
L 155.471603 57.397333 
L 161.51416 27.805608 
L 162.986194 69.194809 
L 165.933135 74.477874 
L 169.062118 105.685639 
L 170.534152 104.78074 
L 172.60123 92.107024 
L 179.158409 103.166949 
L 181.675866 116.397123 
L 190.153047 113.611275 
L 191.625081 120.63948 
L 193.097115 140.036034 
L 197.410422 79.234702 
L 198.882456 56.394849 
L 203.45449 71.710676 
L 204.926524 79.491172 
L 212.012476 91.394027 
L 213.48451 78.136669 
L 214.956544 69.967815 
L 223.171535 67.085055 
L 224.643569 67.527452 
L 226.115603 97.834135 
L 237.156227 88.431845 
L 246.727661 104.907152 
L 248.199695 95.816199 
L 250.861362 79.933981 
" clip-path="url(#p59b0889faa)" style="fill: none; stroke: #0072b2; stroke-width: 1.5; stroke-linecap: square"/>
   </g>
   <g id="line2d_13">
    <path d="M 60.098197 123.351529 
L 62.971874 118.176943 
L 64.93227 115.865931 
L 69.586177 118.9141 
L 76.293525 149.850007 
L 79.403015 132.776558 
L 80.875049 137.765577 
L 84.236602 120.724541 
L 87.396678 125.593352 
L 88.868713 130.746134 
L 90.340747 168.301298 
L 91.812781 172.537103 
L 94.536462 178.929303 
L 99.616989 173.853425 
L 105.024665 173.482016 
L 106.496529 125.581814 
L 107.968392 113.936892 
L 109.440256 114.416872 
L 110.911609 92.875488 
L 122.398784 99.907001 
L 123.870648 100.020928 
L 125.342512 85.103045 
L 127.402157 76.18687 
L 132.174422 71.855813 
L 133.646456 93.903426 
L 134.8913 107.383048 
L 137.708941 111.401061 
L 139.180975 117.074681 
L 146.689411 68.849897 
L 148.161445 68.618462 
L 149.633479 69.269453 
L 151.105513 106.348586 
L 153.712198 70.605068 
L 155.471603 57.377337 
L 161.51416 27.783761 
L 162.986194 69.175719 
L 165.933135 74.459164 
L 169.062118 105.66937 
L 170.534152 104.764406 
L 172.60123 92.089751 
L 179.158409 103.150445 
L 181.675866 116.381667 
L 190.153047 113.595726 
L 191.625081 120.624337 
L 193.097115 140.022451 
L 197.410422 79.216371 
L 198.882456 56.374781 
L 203.45449 71.691659 
L 204.926524 79.473 
L 212.012476 91.376489 
L 213.48451 78.11829 
L 214.956544 69.948828 
L 223.171535 67.06565 
L 224.643569 67.508212 
L 226.115603 97.817326 
L 237.156227 88.414331 
L 246.727661 104.891141 
L 248.199695 95.799261 
L 250.861362 79.915726 
" clip-path="url(#p59b0889faa)" style="fill: none; stroke: #e69f00; stroke-width: 1.5; stroke-linecap: square"/>
   </g>
   <g id="line2d_14">
    <path d="M 60.098197 123.343114 
L 62.971874 116.610202 
L 64.93227 115.197096 
L 69.586177 120.57516 
L 76.293525 149.844341 
L 79.403015 132.770297 
L 80.875049 137.759523 
L 84.236602 120.717863 
L 87.396678 125.586853 
L 88.868713 130.739834 
L 90.340747 168.296295 
L 91.812781 172.553839 
L 94.536462 181.895366 
L 99.616989 175.013754 
L 105.024665 174.082732 
L 106.496529 125.574707 
L 107.968392 113.929318 
L 109.440256 114.409368 
L 110.911609 92.867158 
L 122.398784 99.898867 
L 123.870648 100.012823 
L 125.342512 85.094381 
L 127.402157 76.177875 
L 132.174422 71.846923 
L 133.646456 93.895133 
L 134.8913 107.375293 
L 137.708941 111.393365 
L 139.180975 117.06723 
L 146.689411 68.840545 
L 148.161445 68.609174 
L 149.633479 69.260234 
L 151.105513 106.340716 
L 153.712198 70.595849 
L 155.471603 57.367626 
L 161.51416 27.773151 
L 162.986194 69.166447 
L 165.933135 74.450077 
L 169.062118 105.661468 
L 170.534152 104.756473 
L 172.60123 92.081363 
L 179.158409 103.14243 
L 181.675866 116.37416 
L 190.153047 113.588175 
L 191.625081 120.616983 
L 193.097115 140.015854 
L 197.410422 79.207468 
L 198.882456 56.365035 
L 203.45449 71.682424 
L 204.926524 79.464175 
L 212.012476 91.367972 
L 213.48451 78.109364 
L 214.956544 69.939607 
L 223.171535 67.056226 
L 224.643569 67.498869 
L 226.115603 97.809162 
L 237.156227 88.405826 
L 246.727661 104.883366 
L 248.199695 95.791035 
L 250.861362 79.90686 
" clip-path="url(#p59b0889faa)" style="fill: none; stroke: #009e73; stroke-width: 1.5; stroke-linecap: square"/>
   </g>
   <g id="line2d_15">
    <path d="M 60.098197 123.243874 
L 62.971874 120.873091 
L 64.93227 115.734478 
L 69.586177 117.02852 
L 76.293525 149.863716 
L 79.403015 132.79171 
L 80.875049 137.78023 
L 84.236602 120.740706 
L 87.396678 125.609082 
L 88.868713 130.761382 
L 90.340747 168.313407 
L 91.812781 172.497061 
L 94.536462 179.602218 
L 99.616989 175.18124 
L 105.024665 173.867316 
L 106.496529 125.595408 
L 107.968392 113.951378 
L 109.440256 114.431225 
L 110.911609 92.891422 
L 122.398784 99.922558 
L 123.870648 100.036431 
L 125.342512 85.119617 
L 127.402157 76.204073 
L 132.174422 71.872816 
L 133.646456 93.919287 
L 134.8913 107.397881 
L 137.708941 111.41578 
L 139.180975 117.088932 
L 146.689411 68.867784 
L 148.161445 68.636226 
L 149.633479 69.287086 
L 151.105513 106.363637 
L 153.712198 70.6227 
L 155.471603 57.395911 
L 161.51416 27.804054 
L 162.986194 69.193452 
L 165.933135 74.476543 
L 169.062118 105.684482 
L 170.534152 104.779578 
L 172.60123 92.105796 
L 179.158409 103.165775 
L 181.675866 116.396024 
L 190.153047 113.610169 
L 191.625081 120.638403 
L 193.097115 140.035068 
L 197.410422 79.233398 
L 198.882456 56.393422 
L 203.45449 71.709323 
L 204.926524 79.48988 
L 212.012476 91.39278 
L 213.48451 78.135362 
L 214.956544 69.966464 
L 223.171535 67.083675 
L 224.643569 67.526084 
L 226.115603 97.832939 
L 237.156227 88.430599 
L 246.727661 104.906013 
L 248.199695 95.814995 
L 250.861362 79.932682 
" clip-path="url(#p59b0889faa)" style="fill: none; stroke: #d55e00; stroke-width: 1.5; stroke-linecap: square"/>
   </g>
   <g id="line2d_16">
    <path d="M 60.098197 123.342976 
L 62.971874 120.809965 
L 64.93227 115.370812 
L 69.586177 120.378151 
L 76.293525 149.885348 
L 79.403015 132.815628 
L 80.875049 137.80336 
L 84.236602 120.76622 
L 87.396678 125.63391 
L 88.868713 130.78545 
L 90.340747 168.332522 
L 91.812781 172.435168 
L 94.536462 181.811639 
L 99.616989 175.048806 
L 105.024665 173.738719 
L 106.496529 125.617113 
L 107.968392 113.974507 
L 109.440256 114.454142 
L 110.911609 92.916863 
L 122.398784 99.947399 
L 123.870648 100.061184 
L 125.342512 85.146076 
L 127.402157 76.231542 
L 132.174422 71.899965 
L 133.646456 93.944613 
L 134.8913 107.421563 
L 137.708941 111.43928 
L 139.180975 117.111687 
L 146.689411 68.896343 
L 148.161445 68.664589 
L 149.633479 69.31524 
L 151.105513 106.387669 
L 153.712198 70.650853 
L 155.471603 57.425566 
L 161.51416 27.836455 
L 162.986194 69.221765 
L 165.933135 74.504293 
L 169.062118 105.708612 
L 170.534152 104.803803 
L 172.60123 92.131413 
L 179.158409 103.190251 
L 181.675866 116.418947 
L 190.153047 113.633229 
L 191.625081 120.660861 
L 193.097115 140.055213 
L 197.410422 79.260585 
L 198.882456 56.423185 
L 203.45449 71.737527 
L 204.926524 79.516831 
L 212.012476 91.418791 
L 213.48451 78.16262 
L 214.956544 69.994623 
L 223.171535 67.112455 
L 224.643569 67.554619 
L 226.115603 97.857869 
L 237.156227 88.456574 
L 246.727661 104.929758 
L 248.199695 95.840116 
L 250.861362 79.959756 
" clip-path="url(#p59b0889faa)" style="fill: none; stroke: #cc79a7; stroke-width: 1.5; stroke-linecap: square"/>
   </g>
   <g id="line2d_17">
    <path d="M 60.098197 122.882017 
L 62.971874 120.978653 
L 64.93227 115.340879 
L 69.586177 118.868968 
L 76.293525 149.881124 
L 79.403015 132.810953 
L 80.875049 137.798839 
L 84.236602 120.761233 
L 87.396678 125.629057 
L 88.868713 130.780745 
L 90.340747 168.328785 
L 91.812781 172.447141 
L 94.536462 182.425993 
L 99.616989 173.157556 
L 105.024665 176.779242 
L 106.496529 125.613031 
L 107.968392 113.970157 
L 109.440256 114.449832 
L 110.911609 92.912079 
L 122.398784 99.942727 
L 123.870648 100.056529 
L 125.342512 85.1411 
L 127.402157 76.226376 
L 132.174422 71.894859 
L 133.646456 93.93985 
L 134.8913 107.417109 
L 137.708941 111.434861 
L 139.180975 117.107408 
L 146.689411 68.890972 
L 148.161445 68.659255 
L 149.633479 69.309946 
L 151.105513 106.38315 
L 153.712198 70.645559 
L 155.471603 57.419989 
L 161.51416 27.830361 
L 162.986194 69.21644 
L 165.933135 74.499075 
L 169.062118 105.704074 
L 170.534152 104.799247 
L 172.60123 92.126595 
L 179.158409 103.185648 
L 181.675866 116.414636 
L 190.153047 113.628893 
L 191.625081 120.656637 
L 193.097115 140.051425 
L 197.410422 79.255472 
L 198.882456 56.417588 
L 203.45449 71.732223 
L 204.926524 79.511763 
L 212.012476 91.4139 
L 213.48451 78.157494 
L 214.956544 69.989328 
L 223.171535 67.107043 
L 224.643569 67.549252 
L 226.115603 97.853181 
L 237.156227 88.451689 
L 246.727661 104.925293 
L 248.199695 95.835392 
L 250.861362 79.954665 
" clip-path="url(#p59b0889faa)" style="fill: none; stroke: #56b4e9; stroke-width: 1.5; stroke-linecap: square"/>
   </g>
   <g id="line2d_18">
    <path d="M 60.098197 123.030064 
L 62.971874 120.529409 
L 64.93227 114.483902 
L 69.586177 117.539519 
L 76.293525 149.869007 
L 79.403015 132.797563 
L 80.875049 137.78589 
L 84.236602 120.746949 
L 87.396678 125.615157 
L 88.868713 130.767271 
L 90.340747 168.318085 
L 91.812781 172.481769 
L 94.536462 178.68633 
L 99.616989 171.337998 
L 105.024665 176.955277 
L 106.496529 125.579006 
L 107.968392 113.9339 
L 109.440256 114.413908 
L 110.911609 92.872197 
L 122.398784 99.903788 
L 123.870648 100.017726 
L 125.342512 85.099622 
L 127.402157 76.183317 
L 132.174422 71.852301 
L 133.646456 93.90015 
L 134.8913 107.379985 
L 137.708941 111.398021 
L 139.180975 117.071737 
L 146.689411 68.846202 
L 148.161445 68.614793 
L 149.633479 69.265811 
L 151.105513 106.345477 
L 153.712198 70.601426 
L 155.471603 57.373501 
L 161.51416 27.77957 
L 162.986194 69.172056 
L 165.933135 74.455574 
L 169.062118 105.666248 
L 170.534152 104.761272 
L 172.60123 92.086438 
L 179.158409 103.147279 
L 181.675866 116.378701 
L 190.153047 113.592743 
L 191.625081 120.621432 
L 193.097115 140.019845 
L 197.410422 79.212854 
L 198.882456 56.370931 
L 203.45449 71.688011 
L 204.926524 79.469514 
L 212.012476 91.373124 
L 213.48451 78.114764 
L 214.956544 69.945186 
L 223.171535 67.061927 
L 224.643569 67.504521 
L 226.115603 97.814101 
L 237.156227 88.410971 
L 246.727661 104.88807 
L 248.199695 95.796011 
L 250.861362 79.912224 
" clip-path="url(#p59b0889faa)" style="fill: none; stroke: #f0e442; stroke-width: 1.5; stroke-linecap: square"/>
   </g>
   <g id="line2d_19">
    <path d="M 60.098197 123.089226 
L 62.971874 121.00417 
L 64.93227 114.468591 
L 69.586177 124.756477 
L 76.293525 149.881687 
L 79.403015 132.811588 
L 80.875049 137.799435 
L 84.236602 120.761898 
L 87.396678 125.629704 
L 88.868713 130.781373 
L 90.340747 168.329284 
L 91.812781 172.445541 
L 94.536462 181.325947 
L 99.616989 171.925091 
L 105.024665 173.831445 
L 106.496529 125.599476 
L 107.968392 113.955713 
L 109.440256 114.43552 
L 110.911609 92.89619 
L 122.398784 99.927214 
L 123.870648 100.041071 
L 125.342512 85.124576 
L 127.402157 76.209222 
L 132.174422 71.877904 
L 133.646456 93.924034 
L 134.8913 107.402319 
L 137.708941 111.420184 
L 139.180975 117.093197 
L 146.689411 68.873136 
L 148.161445 68.641542 
L 149.633479 69.292363 
L 151.105513 106.368142 
L 153.712198 70.627977 
L 155.471603 57.401469 
L 161.51416 27.810126 
L 162.986194 69.198758 
L 165.933135 74.481744 
L 169.062118 105.689005 
L 170.534152 104.784118 
L 172.60123 92.110597 
L 179.158409 103.170362 
L 181.675866 116.40032 
L 190.153047 113.614491 
L 191.625081 120.642612 
L 193.097115 140.038844 
L 197.410422 79.238494 
L 198.882456 56.399 
L 203.45449 71.71461 
L 204.926524 79.494931 
L 212.012476 91.397655 
L 213.48451 78.140471 
L 214.956544 69.971742 
L 223.171535 67.089069 
L 224.643569 67.531432 
L 226.115603 97.837612 
L 237.156227 88.435468 
L 246.727661 104.910463 
L 248.199695 95.819703 
L 250.861362 79.937757 
" clip-path="url(#p59b0889faa)" style="fill: none; stroke: #000000; stroke-width: 1.5; stroke-linecap: square"/>
   </g>
   <g id="patch_3">
    <path d="M 50.560039 190.198856 
L 50.560039 20.038594 
" style="fill: none; stroke: #000000; stroke-width: 0.8; stroke-linejoin: miter; stroke-linecap: square"/>
   </g>
   <g id="patch_4">
    <path d="M 50.560039 190.198856 
L 260.39952 190.198856 
" style="fill: none; stroke: #000000; stroke-width: 0.8; stroke-linejoin: miter; stroke-linecap: square"/>
   </g>
   <g id="text_14">
    <text style="font-size: 9px; font-family: 'DejaVu Sans'; text-anchor: middle" x="155.47978" y="14.038594" transform="rotate(-0 155.47978 14.038594)">moving-frame translation</text>
   </g>
   <g id="legend_1">
    <g id="line2d_20">
     <path d="M 157.500536 157.251278 
L 163.000536 157.251278 
L 168.500536 157.251278 
" style="fill: none; stroke: #0072b2; stroke-width: 1.5; stroke-linecap: square"/>
    </g>
    <g id="text_15">
     <text style="font-size: 5.5px; font-family: 'DejaVu Sans'; text-anchor: start" x="172.900536" y="159.176278" transform="rotate(-0 172.900536 159.176278)">Control</text>
    </g>
    <g id="line2d_21">
     <path d="M 157.500536 165.501708 
L 163.000536 165.501708 
L 168.500536 165.501708 
" style="fill: none; stroke: #e69f00; stroke-width: 1.5; stroke-linecap: square"/>
    </g>
    <g id="text_16">
     <text style="font-size: 5.5px; font-family: 'DejaVu Sans'; text-anchor: start" x="172.900536" y="167.426708" transform="rotate(-0 172.900536 167.426708)">Transport</text>
    </g>
    <g id="line2d_22">
     <path d="M 157.500536 173.752137 
L 163.000536 173.752137 
L 168.500536 173.752137 
" style="fill: none; stroke: #009e73; stroke-width: 1.5; stroke-linecap: square"/>
    </g>
    <g id="text_17">
     <text style="font-size: 5.5px; font-family: 'DejaVu Sans'; text-anchor: start" x="172.900536" y="175.677137" transform="rotate(-0 172.900536 175.677137)">Retention</text>
    </g>
    <g id="line2d_23">
     <path d="M 157.500536 182.002567 
L 163.000536 182.002567 
L 168.500536 182.002567 
" style="fill: none; stroke: #d55e00; stroke-width: 1.5; stroke-linecap: square"/>
    </g>
    <g id="text_18">
     <text style="font-size: 5.5px; font-family: 'DejaVu Sans'; text-anchor: start" x="172.900536" y="183.927567" transform="rotate(-0 172.900536 183.927567)">Near-tip</text>
    </g>
    <g id="line2d_24">
     <path d="M 210.420848 157.251278 
L 215.920848 157.251278 
L 221.420848 157.251278 
" style="fill: none; stroke: #cc79a7; stroke-width: 1.5; stroke-linecap: square"/>
    </g>
    <g id="text_19">
     <text style="font-size: 5.5px; font-family: 'DejaVu Sans'; text-anchor: start" x="225.820848" y="159.176278" transform="rotate(-0 225.820848 159.176278)">Wake</text>
    </g>
    <g id="line2d_25">
     <path d="M 210.420848 165.501708 
L 215.920848 165.501708 
L 221.420848 165.501708 
" style="fill: none; stroke: #56b4e9; stroke-width: 1.5; stroke-linecap: square"/>
    </g>
    <g id="text_20">
     <text style="font-size: 5.5px; font-family: 'DejaVu Sans'; text-anchor: start" x="225.820848" y="167.426708" transform="rotate(-0 225.820848 167.426708)">Mobile</text>
    </g>
    <g id="line2d_26">
     <path d="M 210.420848 173.752137 
L 215.920848 173.752137 
L 221.420848 173.752137 
" style="fill: none; stroke: #f0e442; stroke-width: 1.5; stroke-linecap: square"/>
    </g>
    <g id="text_21">
     <text style="font-size: 5.5px; font-family: 'DejaVu Sans'; text-anchor: start" x="225.820848" y="175.677137" transform="rotate(-0 225.820848 175.677137)">Backstress</text>
    </g>
    <g id="line2d_27">
     <path d="M 210.420848 182.002567 
L 215.920848 182.002567 
L 221.420848 182.002567 
" style="fill: none; stroke: #000000; stroke-width: 1.5; stroke-linecap: square"/>
    </g>
    <g id="text_22">
     <text style="font-size: 5.5px; font-family: 'DejaVu Sans'; text-anchor: start" x="225.820848" y="183.927567" transform="rotate(-0 225.820848 183.927567)">Balanced</text>
    </g>
   </g>
  </g>
  <g id="axes_2">
   <g id="patch_5">
    <path d="M 309.760039 190.198856 
L 519.59952 190.198856 
L 519.59952 20.038594 
L 309.760039 20.038594 
z
" style="fill: #ffffff"/>
   </g>
   <g id="matplotlib.axis_3">
    <g id="xtick_8">
     <g id="line2d_28">
      <g>
       <use xlink:href="#mcbcd4c0cdb" x="317.420074" y="190.198856" style="stroke: #000000; stroke-width: 0.8"/>
      </g>
     </g>
     <g id="text_23">
      <text style="font-size: 7.5px; font-family: 'DejaVu Sans'; text-anchor: middle" x="317.420074" y="202.897098" transform="rotate(-0 317.420074 202.897098)">0</text>
     </g>
    </g>
    <g id="xtick_9">
     <g id="line2d_29">
      <g>
       <use xlink:href="#mcbcd4c0cdb" x="349.457867" y="190.198856" style="stroke: #000000; stroke-width: 0.8"/>
      </g>
     </g>
     <g id="text_24">
      <text style="font-size: 7.5px; font-family: 'DejaVu Sans'; text-anchor: middle" x="349.457867" y="202.897098" transform="rotate(-0 349.457867 202.897098)">50</text>
     </g>
    </g>
    <g id="xtick_10">
     <g id="line2d_30">
      <g>
       <use xlink:href="#mcbcd4c0cdb" x="381.49566" y="190.198856" style="stroke: #000000; stroke-width: 0.8"/>
      </g>
     </g>
     <g id="text_25">
      <text style="font-size: 7.5px; font-family: 'DejaVu Sans'; text-anchor: middle" x="381.49566" y="202.897098" transform="rotate(-0 381.49566 202.897098)">100</text>
     </g>
    </g>
    <g id="xtick_11">
     <g id="line2d_31">
      <g>
       <use xlink:href="#mcbcd4c0cdb" x="413.533454" y="190.198856" style="stroke: #000000; stroke-width: 0.8"/>
      </g>
     </g>
     <g id="text_26">
      <text style="font-size: 7.5px; font-family: 'DejaVu Sans'; text-anchor: middle" x="413.533454" y="202.897098" transform="rotate(-0 413.533454 202.897098)">150</text>
     </g>
    </g>
    <g id="xtick_12">
     <g id="line2d_32">
      <g>
       <use xlink:href="#mcbcd4c0cdb" x="445.571247" y="190.198856" style="stroke: #000000; stroke-width: 0.8"/>
      </g>
     </g>
     <g id="text_27">
      <text style="font-size: 7.5px; font-family: 'DejaVu Sans'; text-anchor: middle" x="445.571247" y="202.897098" transform="rotate(-0 445.571247 202.897098)">200</text>
     </g>
    </g>
    <g id="xtick_13">
     <g id="line2d_33">
      <g>
       <use xlink:href="#mcbcd4c0cdb" x="477.60904" y="190.198856" style="stroke: #000000; stroke-width: 0.8"/>
      </g>
     </g>
     <g id="text_28">
      <text style="font-size: 7.5px; font-family: 'DejaVu Sans'; text-anchor: middle" x="477.60904" y="202.897098" transform="rotate(-0 477.60904 202.897098)">250</text>
     </g>
    </g>
    <g id="xtick_14">
     <g id="line2d_34">
      <g>
       <use xlink:href="#mcbcd4c0cdb" x="509.646834" y="190.198856" style="stroke: #000000; stroke-width: 0.8"/>
      </g>
     </g>
     <g id="text_29">
      <text style="font-size: 7.5px; font-family: 'DejaVu Sans'; text-anchor: middle" x="509.646834" y="202.897098" transform="rotate(-0 509.646834 202.897098)">300</text>
     </g>
    </g>
    <g id="text_30">
     <text style="font-size: 8.5px; font-family: 'DejaVu Sans'; text-anchor: middle" x="414.67978" y="215.157528" transform="rotate(-0 414.67978 215.157528)">projected extension [um]</text>
    </g>
   </g>
   <g id="matplotlib.axis_4">
    <g id="ytick_5">
     <g id="line2d_35">
      <g>
       <use xlink:href="#ma8076a0637" x="309.760039" y="182.464299" style="stroke: #000000; stroke-width: 0.8"/>
      </g>
     </g>
     <g id="text_31">
      <text style="font-size: 7.5px; font-family: 'DejaVu Sans'; text-anchor: end" x="302.760039" y="185.31342" transform="rotate(-0 302.760039 185.31342)">0</text>
     </g>
    </g>
    <g id="ytick_6">
     <g id="line2d_36">
      <g>
       <use xlink:href="#ma8076a0637" x="309.760039" y="152.901545" style="stroke: #000000; stroke-width: 0.8"/>
      </g>
     </g>
     <g id="text_32">
      <text style="font-size: 7.5px; font-family: 'DejaVu Sans'; text-anchor: end" x="302.760039" y="155.750666" transform="rotate(-0 302.760039 155.750666)">10000</text>
     </g>
    </g>
    <g id="ytick_7">
     <g id="line2d_37">
      <g>
       <use xlink:href="#ma8076a0637" x="309.760039" y="123.33879" style="stroke: #000000; stroke-width: 0.8"/>
      </g>
     </g>
     <g id="text_33">
      <text style="font-size: 7.5px; font-family: 'DejaVu Sans'; text-anchor: end" x="302.760039" y="126.187912" transform="rotate(-0 302.760039 126.187912)">20000</text>
     </g>
    </g>
    <g id="ytick_8">
     <g id="line2d_38">
      <g>
       <use xlink:href="#ma8076a0637" x="309.760039" y="93.776036" style="stroke: #000000; stroke-width: 0.8"/>
      </g>
     </g>
     <g id="text_34">
      <text style="font-size: 7.5px; font-family: 'DejaVu Sans'; text-anchor: end" x="302.760039" y="96.625158" transform="rotate(-0 302.760039 96.625158)">30000</text>
     </g>
    </g>
    <g id="ytick_9">
     <g id="line2d_39">
      <g>
       <use xlink:href="#ma8076a0637" x="309.760039" y="64.213282" style="stroke: #000000; stroke-width: 0.8"/>
      </g>
     </g>
     <g id="text_35">
      <text style="font-size: 7.5px; font-family: 'DejaVu Sans'; text-anchor: end" x="302.760039" y="67.062404" transform="rotate(-0 302.760039 67.062404)">40000</text>
     </g>
    </g>
    <g id="ytick_10">
     <g id="line2d_40">
      <g>
       <use xlink:href="#ma8076a0637" x="309.760039" y="34.650528" style="stroke: #000000; stroke-width: 0.8"/>
      </g>
     </g>
     <g id="text_36">
      <text style="font-size: 7.5px; font-family: 'DejaVu Sans'; text-anchor: end" x="302.760039" y="37.499649" transform="rotate(-0 302.760039 37.499649)">50000</text>
     </g>
    </g>
    <g id="text_37">
     <text style="font-size: 8.5px; font-family: 'DejaVu Sans'; text-anchor: middle" x="272.858672" y="105.118725" transform="rotate(-90 272.858672 105.118725)">inferred removal over accepted bracket</text>
    </g>
   </g>
   <g id="line2d_41">
    <path d="M 319.298197 182.464299 
L 322.171874 182.464299 
L 324.13227 182.464299 
L 328.786177 182.464299 
L 335.493525 182.464299 
L 338.603015 182.464299 
L 340.075049 182.464299 
L 343.436602 182.464299 
L 346.596678 182.464299 
L 348.068713 182.464299 
L 349.540747 182.464299 
L 351.012781 182.464299 
L 353.736462 182.464299 
L 358.816989 182.464298 
L 364.224665 182.462891 
L 365.696529 182.4639 
L 367.168392 182.456651 
L 368.640256 182.439449 
L 370.111609 182.44723 
L 381.598784 151.445382 
L 383.070648 166.077251 
L 384.542512 171.361449 
L 386.602157 177.210024 
L 391.374422 163.55059 
L 392.846456 162.695346 
L 394.0913 80.036178 
L 396.908941 171.505634 
L 398.380975 80.786626 
L 405.889411 167.197068 
L 407.361445 77.262247 
L 408.833479 164.852802 
L 410.305513 175.05761 
L 412.912198 173.568576 
L 414.671603 180.797643 
L 420.71416 156.708756 
L 422.186194 170.4477 
L 425.133135 172.709693 
L 428.262118 170.692979 
L 429.734152 175.089691 
L 431.80123 175.580582 
L 438.358409 135.420665 
L 440.875866 170.544795 
L 449.353047 154.919446 
L 450.825081 46.485845 
L 452.297115 172.623233 
L 456.610422 160.92323 
L 458.082456 164.894219 
L 462.65449 158.968649 
L 464.126524 179.112693 
L 471.212476 168.34771 
L 472.68451 181.834171 
L 474.156544 141.849824 
L 482.371535 148.033929 
L 483.843569 27.791814 
L 485.315603 152.834195 
L 496.356227 115.989815 
L 505.927661 140.137847 
L 507.399695 169.747363 
L 510.061362 170.669279 
" clip-path="url(#p5859a30134)" style="fill: none; stroke: #0072b2; stroke-width: 1.5; stroke-linecap: square"/>
   </g>
   <g id="line2d_42">
    <path d="M 319.298197 182.464272 
L 322.171874 182.464228 
L 324.13227 182.464297 
L 328.786177 182.464298 
L 335.493525 182.464298 
L 338.603015 182.464299 
L 340.075049 182.464298 
L 343.436602 182.464299 
L 346.596678 182.464299 
L 348.068713 182.464299 
L 349.540747 182.464299 
L 351.012781 182.462419 
L 353.736462 182.464296 
L 358.816989 182.462445 
L 364.224665 182.456916 
L 365.696529 182.463841 
L 367.168392 182.45634 
L 368.640256 182.439141 
L 370.111609 182.447155 
L 381.598784 151.439652 
L 383.070648 166.074923 
L 384.542512 171.360242 
L 386.602157 177.209653 
L 391.374422 163.549872 
L 392.846456 162.694553 
L 394.0913 80.031905 
L 396.908941 171.505209 
L 398.380975 80.783064 
L 405.889411 167.197203 
L 407.361445 77.263722 
L 408.833479 164.853318 
L 410.305513 175.057931 
L 412.912198 173.569166 
L 414.671603 180.797766 
L 420.71416 156.708912 
L 422.186194 170.44743 
L 425.133135 172.709105 
L 428.262118 170.692072 
L 429.734152 175.089102 
L 431.80123 175.58002 
L 438.358409 135.416802 
L 440.875866 170.543817 
L 449.353047 154.917194 
L 450.825081 46.474734 
L 452.297115 172.622429 
L 456.610422 160.921468 
L 458.082456 164.892782 
L 462.65449 158.966729 
L 464.126524 179.112419 
L 471.212476 168.34656 
L 472.68451 181.83412 
L 474.156544 141.846517 
L 482.371535 148.031133 
L 483.843569 27.779252 
L 485.315603 152.831786 
L 496.356227 115.98436 
L 505.927661 140.134361 
L 507.399695 169.746315 
L 510.061362 170.668308 
" clip-path="url(#p5859a30134)" style="fill: none; stroke: #e69f00; stroke-width: 1.5; stroke-linecap: square"/>
   </g>
   <g id="line2d_43">
    <path d="M 319.298197 182.464298 
L 322.171874 182.464299 
L 324.13227 182.464299 
L 328.786177 182.464299 
L 335.493525 182.464247 
L 338.603015 182.464223 
L 340.075049 182.463545 
L 343.436602 182.464145 
L 346.596678 182.46411 
L 348.068713 182.462696 
L 349.540747 182.464225 
L 351.012781 182.449048 
L 353.736462 182.46426 
L 358.816989 182.464172 
L 364.224665 182.457721 
L 365.696529 182.463837 
L 367.168392 182.456282 
L 368.640256 182.439035 
L 370.111609 182.447115 
L 381.598784 151.440143 
L 383.070648 166.075423 
L 384.542512 171.360456 
L 386.602157 177.209543 
L 391.374422 163.547519 
L 392.846456 162.691835 
L 394.0913 80.017829 
L 396.908941 171.504163 
L 398.380975 80.774953 
L 405.889411 167.197626 
L 407.361445 77.267152 
L 408.833479 164.854094 
L 410.305513 175.058354 
L 412.912198 173.570108 
L 414.671603 180.798046 
L 420.71416 156.717137 
L 422.186194 170.45085 
L 425.133135 172.710661 
L 428.262118 170.692566 
L 429.734152 175.089157 
L 431.80123 175.579885 
L 438.358409 135.414963 
L 440.875866 170.543344 
L 449.353047 154.916101 
L 450.825081 46.469338 
L 452.297115 172.622038 
L 456.610422 160.920613 
L 458.082456 164.892084 
L 462.65449 158.965797 
L 464.126524 179.112286 
L 471.212476 168.346001 
L 472.68451 181.834095 
L 474.156544 141.844912 
L 482.371535 148.029776 
L 483.843569 27.773151 
L 485.315603 152.830615 
L 496.356227 115.981711 
L 505.927661 140.132667 
L 507.399695 169.745806 
L 510.061362 170.667836 
" clip-path="url(#p5859a30134)" style="fill: none; stroke: #009e73; stroke-width: 1.5; stroke-linecap: square"/>
   </g>
   <g id="line2d_44">
    <path d="M 319.298197 182.464299 
L 322.171874 182.464299 
L 324.13227 182.464299 
L 328.786177 182.464299 
L 335.493525 182.464299 
L 338.603015 182.464299 
L 340.075049 182.464299 
L 343.436602 182.464299 
L 346.596678 182.464299 
L 348.068713 182.464299 
L 349.540747 182.464299 
L 351.012781 182.464299 
L 353.736462 182.464299 
L 358.816989 182.464299 
L 364.224665 182.462894 
L 365.696529 182.4639 
L 367.168392 182.456661 
L 368.640256 182.439473 
L 370.111609 182.447242 
L 381.598784 151.43559 
L 383.070648 166.07188 
L 384.542512 171.357981 
L 386.602157 177.208656 
L 391.374422 163.548743 
L 392.846456 162.694273 
L 394.0913 80.032774 
L 396.908941 171.505892 
L 398.380975 80.789776 
L 405.889411 167.197857 
L 407.361445 77.267405 
L 408.833479 164.853474 
L 410.305513 175.057803 
L 412.912198 173.568642 
L 414.671603 180.797655 
L 420.71416 156.711068 
L 422.186194 170.448918 
L 425.133135 172.710484 
L 428.262118 170.693422 
L 429.734152 175.089848 
L 431.80123 175.580629 
L 438.358409 135.420418 
L 440.875866 170.544727 
L 449.353047 154.919285 
L 450.825081 46.485055 
L 452.297115 172.623176 
L 456.610422 160.923105 
L 458.082456 164.894117 
L 462.65449 158.968512 
L 464.126524 179.112674 
L 471.212476 168.347629 
L 472.68451 181.834167 
L 474.156544 141.849589 
L 482.371535 148.03373 
L 483.843569 27.790921 
L 485.315603 152.834024 
L 496.356227 115.989427 
L 505.927661 140.137599 
L 507.399695 169.747288 
L 510.061362 170.66921 
" clip-path="url(#p5859a30134)" style="fill: none; stroke: #d55e00; stroke-width: 1.5; stroke-linecap: square"/>
   </g>
   <g id="line2d_45">
    <path d="M 319.298197 182.464295 
L 322.171874 182.464295 
L 324.13227 182.464298 
L 328.786177 182.464299 
L 335.493525 182.464272 
L 338.603015 182.464246 
L 340.075049 182.463738 
L 343.436602 182.464181 
L 346.596678 182.464166 
L 348.068713 182.463148 
L 349.540747 182.464239 
L 351.012781 182.448829 
L 353.736462 182.464196 
L 358.816989 182.464081 
L 364.224665 182.454943 
L 365.696529 182.463812 
L 367.168392 182.456207 
L 368.640256 182.439046 
L 370.111609 182.447146 
L 381.598784 151.439568 
L 383.070648 166.07464 
L 384.542512 171.360031 
L 386.602157 177.209597 
L 391.374422 163.550706 
L 392.846456 162.696017 
L 394.0913 80.041575 
L 396.908941 171.507185 
L 398.380975 80.803146 
L 405.889411 167.201304 
L 407.361445 77.291735 
L 408.833479 164.85776 
L 410.305513 175.059662 
L 412.912198 173.570947 
L 414.671603 180.798083 
L 420.71416 156.715778 
L 422.186194 170.450792 
L 425.133135 172.711705 
L 428.262118 170.694809 
L 429.734152 175.090721 
L 431.80123 175.581454 
L 438.358409 135.426141 
L 440.875866 170.546177 
L 449.353047 154.922624 
L 450.825081 46.501534 
L 452.297115 172.624369 
L 456.610422 160.925718 
L 458.082456 164.896249 
L 462.65449 158.971359 
L 464.126524 179.113079 
L 471.212476 168.349335 
L 472.68451 181.834243 
L 474.156544 141.854493 
L 482.371535 148.037876 
L 483.843569 27.809552 
L 485.315603 152.837598 
L 496.356227 115.997518 
L 505.927661 140.142771 
L 507.399695 169.748842 
L 510.061362 170.670651 
" clip-path="url(#p5859a30134)" style="fill: none; stroke: #cc79a7; stroke-width: 1.5; stroke-linecap: square"/>
   </g>
   <g id="line2d_46">
    <path d="M 319.298197 182.464299 
L 322.171874 182.464299 
L 324.13227 182.464299 
L 328.786177 182.464299 
L 335.493525 182.464299 
L 338.603015 182.464299 
L 340.075049 182.464299 
L 343.436602 182.464299 
L 346.596678 182.464299 
L 348.068713 182.464299 
L 349.540747 182.464299 
L 351.012781 182.464299 
L 353.736462 182.464299 
L 358.816989 182.464298 
L 364.224665 182.462889 
L 365.696529 182.463899 
L 367.168392 182.456646 
L 368.640256 182.439435 
L 370.111609 182.447222 
L 381.598784 151.438261 
L 383.070648 166.074533 
L 384.542512 171.360338 
L 386.602157 177.209995 
L 391.374422 163.553351 
L 392.846456 162.698605 
L 394.0913 80.053589 
L 396.908941 171.507512 
L 398.380975 80.803974 
L 405.889411 167.199848 
L 407.361445 77.281564 
L 408.833479 164.856124 
L 410.305513 175.059068 
L 412.912198 173.570659 
L 414.671603 180.798124 
L 420.71416 156.721346 
L 422.186194 170.453439 
L 425.133135 172.713234 
L 428.262118 170.69556 
L 429.734152 175.090947 
L 431.80123 175.581468 
L 438.358409 135.425119 
L 440.875866 170.545907 
L 449.353047 154.921996 
L 450.825081 46.498435 
L 452.297115 172.624144 
L 456.610422 160.925227 
L 458.082456 164.895848 
L 462.65449 158.970824 
L 464.126524 179.113003 
L 471.212476 168.349014 
L 472.68451 181.834229 
L 474.156544 141.853571 
L 482.371535 148.037096 
L 483.843569 27.806048 
L 485.315603 152.836926 
L 496.356227 115.995997 
L 505.927661 140.141798 
L 507.399695 169.74855 
L 510.061362 170.67038 
" clip-path="url(#p5859a30134)" style="fill: none; stroke: #56b4e9; stroke-width: 1.5; stroke-linecap: square"/>
   </g>
   <g id="line2d_47">
    <path d="M 319.298197 182.464299 
L 322.171874 182.464299 
L 324.13227 182.464299 
L 328.786177 182.464299 
L 335.493525 182.464299 
L 338.603015 182.464299 
L 340.075049 182.464299 
L 343.436602 182.464299 
L 346.596678 182.464299 
L 348.068713 182.464299 
L 349.540747 182.464299 
L 351.012781 182.464299 
L 353.736462 182.464299 
L 358.816989 182.464299 
L 364.224665 182.462892 
L 365.696529 182.4639 
L 367.168392 182.456653 
L 368.640256 182.439454 
L 370.111609 182.447232 
L 381.598784 151.435384 
L 383.070648 166.072234 
L 384.542512 171.358337 
L 386.602157 177.208779 
L 391.374422 163.547879 
L 392.846456 162.693102 
L 394.0913 80.026505 
L 396.908941 171.505509 
L 398.380975 80.787337 
L 405.889411 167.198654 
L 407.361445 77.273622 
L 408.833479 164.854895 
L 410.305513 175.05857 
L 412.912198 173.570032 
L 414.671603 180.79799 
L 420.71416 156.718117 
L 422.186194 170.451786 
L 425.133135 172.711671 
L 428.262118 170.693457 
L 429.734152 175.089591 
L 431.80123 175.580173 
L 438.358409 135.416143 
L 440.875866 170.543634 
L 449.353047 154.916763 
L 450.825081 46.472603 
L 452.297115 172.622275 
L 456.610422 160.92113 
L 458.082456 164.892506 
L 462.65449 158.966361 
L 464.126524 179.112367 
L 471.212476 168.346339 
L 472.68451 181.83411 
L 474.156544 141.845883 
L 482.371535 148.030597 
L 483.843569 27.776842 
L 485.315603 152.831323 
L 496.356227 115.983313 
L 505.927661 140.133692 
L 507.399695 169.746114 
L 510.061362 170.668121 
" clip-path="url(#p5859a30134)" style="fill: none; stroke: #f0e442; stroke-width: 1.5; stroke-linecap: square"/>
   </g>
   <g id="line2d_48">
    <path d="M 319.298197 182.464299 
L 322.171874 182.464299 
L 324.13227 182.464299 
L 328.786177 182.464299 
L 335.493525 182.464299 
L 338.603015 182.464299 
L 340.075049 182.464299 
L 343.436602 182.464299 
L 346.596678 182.464299 
L 348.068713 182.464299 
L 349.540747 182.464299 
L 351.012781 182.464299 
L 353.736462 182.464299 
L 358.816989 182.464298 
L 364.224665 182.462888 
L 365.696529 182.463899 
L 367.168392 182.456644 
L 368.640256 182.43943 
L 370.111609 182.44722 
L 381.598784 151.439847 
L 383.070648 166.074502 
L 384.542512 171.359473 
L 386.602157 177.208811 
L 391.374422 163.542506 
L 392.846456 162.686547 
L 394.0913 79.992047 
L 396.908941 171.503062 
L 398.380975 80.769157 
L 405.889411 167.199536 
L 407.361445 77.279998 
L 408.833479 164.856017 
L 410.305513 175.059059 
L 412.912198 173.570677 
L 414.671603 180.798107 
L 420.71416 156.716815 
L 422.186194 170.450895 
L 425.133135 172.711213 
L 428.262118 170.693807 
L 429.734152 175.09004 
L 431.80123 175.580786 
L 438.358409 135.421487 
L 440.875866 170.544999 
L 449.353047 154.919911 
L 450.825081 46.488144 
L 452.297115 172.623399 
L 456.610422 160.923595 
L 458.082456 164.894517 
L 462.65449 158.969046 
L 464.126524 179.11275 
L 471.212476 168.347948 
L 472.68451 181.834181 
L 474.156544 141.850508 
L 482.371535 148.034507 
L 483.843569 27.794413 
L 485.315603 152.834694 
L 496.356227 115.990944 
L 505.927661 140.138569 
L 507.399695 169.747579 
L 510.061362 170.66948 
" clip-path="url(#p5859a30134)" style="fill: none; stroke: #000000; stroke-width: 1.5; stroke-linecap: square"/>
   </g>
   <g id="patch_6">
    <path d="M 309.760039 190.198856 
L 309.760039 20.038594 
" style="fill: none; stroke: #000000; stroke-width: 0.8; stroke-linejoin: miter; stroke-linecap: square"/>
   </g>
   <g id="patch_7">
    <path d="M 309.760039 190.198856 
L 519.59952 190.198856 
" style="fill: none; stroke: #000000; stroke-width: 0.8; stroke-linejoin: miter; stroke-linecap: square"/>
   </g>
   <g id="text_38">
    <text style="font-size: 9px; font-family: 'DejaVu Sans'; text-anchor: middle" x="414.67978" y="14.038594" transform="rotate(-0 414.67978 14.038594)">discard/escape accounting</text>
   </g>
  </g>
 </g>
 <defs>
  <clipPath id="p59b0889faa">
   <rect x="50.560039" y="20.038594" width="209.839481" height="170.160262"/>
  </clipPath>
  <clipPath id="p5859a30134">
   <rect x="309.760039" y="20.038594" width="209.839481" height="170.160262"/>
  </clipPath>
 </defs>
</svg>
